<svg xmlns="http://www.w3.org/2000/svg" version="1.1" viewBox="-5.0 -10.0 110.0 135.0">
 <g>
  <path d="m18.875 73.406c-3.8438-15.906-1.4062-37.062 7.2812-46.375 5.8438-6.25 17.375-9.8438 31.656-9.8438 5.2148-0.046875 10.414 0.50781 15.5 1.6562-0.77734-1.5273-1.7539-2.9492-2.9062-4.2188-4.875-5.25-15.438-8.375-28.219-8.375s-23.344 3.125-28.219 8.375c-10.344 11.062-10.344 44.062 0 55.125 1.4258 1.4766 3.082 2.7109 4.9062 3.6562z"/>
  <path d="m57.812 21.875c-12.785 0-23.332 3.125-28.219 8.3633-10.344 11.082-10.344 44.07 0 55.152 4.8867 5.2344 15.434 8.3594 28.219 8.3594 12.781 0 23.332-3.125 28.219-8.3594 10.344-11.082 10.344-44.07 0-55.152-4.8867-5.2383-15.438-8.3633-28.219-8.3633zm10.938 21.875h-3.125c-1.7266 0.003906-3.1211 1.3984-3.125 3.125v21.875c0.058594 4.1602-2.5977 7.875-6.5547 9.168-3.957 1.293-8.293-0.14062-10.703-3.5312-2.4102-3.3945-2.332-7.9609 0.19141-11.27 2.5234-3.3086 6.9062-4.5938 10.816-3.168v-13.074c0.003906-5.1758 4.1992-9.3711 9.375-9.375h3.125c1.7266 0 3.125 1.3984 3.125 3.125s-1.3984 3.125-3.125 3.125z"/>
 </g>
<text x="0.0" y="117.5" font-size="5.0" font-weight="bold" font-family="Arbeit Regular, Helvetica, Arial-Unicode, Arial, Sans-serif" fill="#000000">Created by Nursila</text><text x="0.0" y="122.5" font-size="5.0" font-weight="bold" font-family="Arbeit Regular, Helvetica, Arial-Unicode, Arial, Sans-serif" fill="#000000">from Noun Project</text></svg>